<svg width="233" height="254" viewBox="0 0 233 254" fill="none" xmlns="http://www.w3.org/2000/svg">
<path d="M148.764 108.398H134.455C132.213 108.398 130.388 109.989 130.388 111.945V117.335C130.388 117.592 130.444 117.846 130.552 118.084C130.644 118.287 139.642 138.383 131.805 148.446C128.874 152.212 123.723 154.121 116.5 154.121C109.293 154.121 104.151 152.215 101.22 148.457C93.3866 138.416 102.357 118.285 102.449 118.082C102.556 117.844 102.612 117.59 102.612 117.335V111.945C102.612 109.989 100.787 108.398 98.5449 108.398H84.2361C82.0847 108.398 80.3338 109.925 80.3338 111.802V114.981C80.3338 116.392 81.3077 117.635 82.8128 118.149L84.6548 118.778C82.0938 125.154 80.9982 132.903 80.5602 137.198C80.2701 140.044 80.3509 142.613 80.8082 145.053C83.6707 160.365 98.6814 171.479 116.5 171.479C134.317 171.479 149.328 160.365 152.192 145.053C152.649 142.609 152.73 140.04 152.44 137.199C152.002 132.903 150.906 125.154 148.345 118.778L150.186 118.149C151.692 117.635 152.666 116.392 152.666 114.981V111.802C152.666 109.925 150.915 108.398 148.764 108.398ZM148.006 114.529L144.498 115.727C143.915 115.926 143.449 116.321 143.203 116.823C142.958 117.326 142.955 117.894 143.195 118.398C146.129 124.562 147.338 133.048 147.798 137.559C148.053 140.057 147.986 142.295 147.593 144.398C145.098 157.735 132.022 167.415 116.5 167.415C100.977 167.415 87.9006 157.735 85.4068 144.398C85.0131 142.298 84.946 140.061 85.202 137.558C85.6616 133.048 86.871 124.562 89.8051 118.398C90.0452 117.894 90.0418 117.326 89.7972 116.823C89.5514 116.321 89.085 115.926 88.5025 115.727L84.9938 114.529V112.462H97.9522V116.958C96.6381 119.998 88.6947 139.617 97.3617 150.737C101.214 155.679 107.653 158.185 116.5 158.185C125.362 158.185 131.808 155.677 135.661 150.729C144.322 139.607 136.365 119.998 135.048 116.957V112.462H148.006V114.529V114.529Z" fill="black"/>
<path d="M209.692 180.848V87.6766C209.692 83.2465 205.559 79.6419 200.479 79.6419H196.552C202.137 76.9833 205.934 71.8145 205.934 65.8862C205.934 57.2512 197.878 50.2255 187.977 50.2255C178.075 50.2255 170.019 57.2512 170.019 65.8862C170.019 71.8145 173.817 76.9833 179.402 79.6419H175.475C170.394 79.6419 166.26 83.2465 166.26 87.6766V95.9356H161.677C161.984 94.5067 162.196 93.0597 162.196 91.5928C162.196 82.0896 155.706 73.6134 145.827 69.9095C146.358 68.2109 146.625 66.4746 146.625 64.7273C146.625 53.7081 136.346 44.7437 123.711 44.7437C122.618 44.7437 121.533 44.8357 120.458 44.9692C118.613 43.4618 116.502 42.2088 114.204 41.3058C114.594 39.9623 114.791 38.5921 114.791 37.214C114.791 27.8983 106.101 20.32 95.4196 20.32C85.5296 20.32 77.3485 26.7623 76.2051 35.2018C69.7976 38.0891 65.7303 43.8517 65.7303 50.2106C65.7303 53.2954 66.6849 56.2749 68.5029 58.9032C66.6849 61.9671 65.7303 65.3613 65.7303 68.7963C65.7303 81.1385 78.5559 90.9298 90.8916 92.5801C90.3373 93.6728 89.8709 94.7904 89.4981 95.9356H66.7235V87.6766C66.7235 83.2465 62.5903 79.6419 57.5105 79.6419H53.5834C59.1681 76.9833 62.9657 71.8145 62.9657 65.8862C62.9657 57.2512 54.9097 50.2255 45.0084 50.2255C35.107 50.2255 27.051 57.2512 27.051 65.8862C27.051 71.8145 30.8486 76.9833 36.4333 79.6419H32.5062C27.4253 79.6419 23.292 83.2465 23.292 87.6766V180.848C23.292 181.97 24.3353 182.88 25.622 182.88H207.362C208.649 182.88 209.692 181.97 209.692 180.848ZM174.679 65.8862C174.679 59.4916 180.644 54.2895 187.977 54.2895C195.309 54.2895 201.274 59.4916 201.274 65.8862C201.274 72.2809 195.309 77.4829 187.977 77.4829C180.644 77.4829 174.679 72.2809 174.679 65.8862ZM31.711 65.8862C31.711 59.4916 37.6759 54.2895 45.0084 54.2895C52.3408 54.2895 58.3057 59.4916 58.3057 65.8862C58.3057 72.2809 52.3408 77.4829 45.0084 77.4829C37.6759 77.4829 31.711 72.2809 31.711 65.8862ZM70.3903 68.7963C70.3903 65.6659 71.371 62.5733 73.2255 59.8547C73.6976 59.1631 73.6567 58.293 73.1208 57.6372C71.3346 55.4494 70.3903 52.8816 70.3903 50.2106C70.3903 45.0632 73.9001 40.4297 79.3315 38.4076C80.1552 38.101 80.7035 37.4094 80.7445 36.6296C81.0995 29.7626 87.5456 24.384 95.4196 24.384C103.531 24.384 110.131 30.1397 110.131 37.214C110.131 38.7598 109.802 40.2967 109.153 41.781C108.925 42.2989 108.951 42.8744 109.223 43.3755C109.495 43.8765 109.99 44.2585 110.593 44.4331C112.116 44.8752 113.557 45.5131 114.897 46.2899C107.273 49.0634 101.855 55.2735 100.955 62.5703C99.7773 63.0863 98.6909 63.7079 97.6518 64.3768V43.4161C97.6518 42.294 96.6085 41.3841 95.3218 41.3841C94.0351 41.3841 92.9918 42.294 92.9918 43.4161V56.0851C89.2892 55.1882 86.5479 52.2527 86.5479 48.7412C86.5479 47.619 85.5046 46.7092 84.2179 46.7092C82.9311 46.7092 81.8879 47.619 81.8879 48.7412C81.8879 54.5072 86.6929 59.3029 92.9918 60.2694V68.4067C90.8917 70.8324 89.4436 73.6571 88.7816 76.6994C83.5869 74.5252 80.1165 69.8643 80.1165 64.7363C80.1165 63.6141 79.0732 62.7043 77.7865 62.7043C76.4998 62.7043 75.4565 63.6141 75.4565 64.7363C75.4565 71.9481 80.7092 78.456 88.3742 80.9608C88.453 83.5409 89.0696 86.0539 90.2424 88.39C80.3018 86.562 70.3903 78.646 70.3903 68.7963ZM96.4856 91.8607C96.5201 91.8102 96.532 91.7534 96.561 91.7012C96.598 91.6352 96.6273 91.5701 96.656 91.5003C96.7334 91.3116 96.7783 91.1199 96.7897 90.9231C96.7918 90.8872 96.8133 90.8571 96.8133 90.8209C96.8133 90.809 96.8058 90.7992 96.8055 90.7873C96.8009 90.5489 96.744 90.3152 96.6441 90.0901C96.6161 90.0274 96.5757 89.9744 96.5411 89.9148C96.4884 89.8235 96.4504 89.7271 96.381 89.6422C94.1636 86.9275 92.9918 83.7406 92.9918 80.4267C92.9918 74.039 97.3469 68.2903 104.088 65.781C104.911 65.4745 105.461 64.7829 105.501 64.003C105.873 56.7759 111.783 50.672 119.872 49.1599C121.122 48.9268 122.414 48.8077 123.711 48.8077C133.776 48.8077 141.965 55.9495 141.965 64.7273C141.965 66.6472 141.557 68.5532 140.751 70.3947C140.524 70.9116 140.55 71.4881 140.822 71.9892C141.094 72.4892 141.588 72.8722 142.191 73.0468C151.369 75.7118 157.536 83.1652 157.536 91.5928C157.536 93.0652 157.307 94.5168 156.935 95.9356H144.841C146.324 93.2112 147.104 90.2328 147.104 87.1637C147.104 86.0415 146.061 85.1317 144.774 85.1317C143.487 85.1317 142.444 86.0415 142.444 87.1637C142.444 90.3026 141.398 93.3095 139.489 95.9356H125.922V72.2203C125.922 71.0982 124.879 70.1883 123.592 70.1883C122.306 70.1883 121.262 71.0982 121.262 72.2203V88.095C116.267 87.1578 112.509 83.2837 112.509 78.6517C112.509 77.5295 111.466 76.6197 110.179 76.6197C108.892 76.6197 107.849 77.5295 107.849 78.6517C107.849 85.5309 113.686 91.2277 121.262 92.215V95.9356H94.3347C94.8895 94.526 95.5985 93.159 96.4856 91.8607ZM27.952 178.816V165.275H38.7761C40.0628 165.275 41.1061 164.365 41.1061 163.243C41.1061 162.12 40.0628 161.211 38.7761 161.211H27.952V133.929H38.7761C40.0628 133.929 41.1061 133.02 41.1061 131.897C41.1061 130.775 40.0628 129.865 38.7761 129.865H27.952V102.585H38.7761C40.0628 102.585 41.1061 101.675 41.1061 100.553C41.1061 99.4311 40.0628 98.5212 38.7761 98.5212H27.952V87.6766C27.952 85.4869 29.9953 83.7059 32.5062 83.7059H57.5105C60.0214 83.7059 62.0635 85.4869 62.0635 87.6766V115.349H51.2406C49.9539 115.349 48.9106 116.259 48.9106 117.381C48.9106 118.503 49.9539 119.413 51.2406 119.413H62.0635V146.693H51.2406C49.9539 146.693 48.9106 147.603 48.9106 148.725C48.9106 149.847 49.9539 150.757 51.2406 150.757H62.0635V178.816H27.952ZM66.7235 178.816V99.9996H166.26V178.816H66.7235ZM170.92 178.816V165.275H181.743C183.03 165.275 184.073 164.365 184.073 163.243C184.073 162.12 183.03 161.211 181.743 161.211H170.92V133.929H181.743C183.03 133.929 184.073 133.02 184.073 131.897C184.073 130.775 183.03 129.865 181.743 129.865H170.92V102.585H181.743C183.03 102.585 184.073 101.675 184.073 100.553C184.073 99.4311 183.03 98.5212 181.743 98.5212H170.92V87.6766C170.92 85.4869 172.964 83.7059 175.475 83.7059H200.479C202.99 83.7059 205.032 85.4869 205.032 87.6766V115.349H194.209C192.922 115.349 191.879 116.259 191.879 117.381C191.879 118.503 192.922 119.413 194.209 119.413H205.032V146.693H194.209C192.922 146.693 191.879 147.603 191.879 148.725C191.879 149.847 192.922 150.757 194.209 150.757H205.032V178.816H170.92Z" fill="black"/>
</svg>
