<svg width="226" height="323" viewBox="0 0 226 323" fill="none" xmlns="http://www.w3.org/2000/svg">
<path d="M196.841 131.916C193.307 124.461 189.304 116.011 187.732 105.639C183.815 79.7886 168.615 66.596 163.521 62.8349C167.423 47.7119 160.952 28.342 160.663 27.4891C160.427 26.7964 159.944 26.2538 159.334 25.9977C158.719 25.7416 158.048 25.7984 157.476 26.1529C144.055 34.4853 137.648 45.7007 135.569 49.9969C130.826 49.3799 116.547 48.3756 98.0716 55.0248C77.6014 62.3907 47.9477 81.0061 22.931 127.854C22.28 129.071 22.6176 130.662 23.6814 131.405C24.7496 132.146 26.1379 131.764 26.7889 130.546C53.0406 81.3905 84.5697 63.7753 107.074 57.7482C109.118 76.7116 120.06 98.2436 139.665 121.818C151.547 136.103 163.334 147.035 168.072 151.261L166.595 152.774C161.484 152.762 133.911 151.264 123.859 121.861C123.404 120.532 122.097 119.875 120.93 120.396C119.767 120.914 119.193 122.413 119.648 123.743C120.845 127.246 122.284 130.373 123.887 133.195C120.365 158.695 124.819 177.851 125.05 178.807C134.677 211.3 140.734 230.656 140.793 230.848C141.124 231.903 141.994 232.561 142.921 232.561C143.175 232.561 143.431 232.512 143.682 232.409C144.858 231.928 145.47 230.448 145.048 229.104C144.989 228.914 138.944 209.595 129.372 177.298C129.329 177.124 125.581 160.877 127.758 139.015C140.694 155.684 160.154 157.694 165.903 157.909C170.628 171.489 177.926 174.373 183.265 174.373C184.371 174.373 185.393 174.25 186.291 174.072C190.999 173.139 195.479 170.062 198.911 165.404C207.306 154.005 202.455 143.769 196.841 131.916ZM133.731 55.0142C132.995 57.4576 132.082 60.8483 131.729 63.7092C128.067 64.1551 119.924 65.2909 113.486 67.1324C112.536 63.6359 111.889 60.145 111.54 56.6791C121.861 54.4708 129.806 54.6677 133.731 55.0142ZM115 72.0154C123.007 69.7967 133.93 68.6493 134.046 68.6375C135.238 68.5139 136.138 67.3518 136.103 65.9866C136.031 63.2645 137.793 57.0934 138.932 53.8055C139.195 53.1639 144.201 41.3084 157.302 32.2268C158.961 38.2704 162.168 52.6137 158.69 63.0544C158.286 64.2669 158.732 65.6333 159.729 66.2491C159.921 66.3677 179.023 78.4385 183.278 106.522C184.574 115.065 187.318 122.23 190.187 128.614L171.494 147.757C163.74 140.887 126.945 106.957 115 72.0154ZM195.455 162.075C192.707 165.802 189.18 168.255 185.519 168.979C178.757 170.317 173.589 165.974 170.137 156.085L192.367 133.32C192.533 133.671 192.702 134.031 192.866 134.378C198.778 146.858 201.579 153.758 195.455 162.075Z" fill="black"/>
<path d="M160.297 90.3504C154.965 86.8163 148.116 88.9032 145.026 94.9986C144.399 96.2325 144.768 97.8135 145.847 98.5301C146.931 99.243 148.31 98.8241 148.937 97.5902C150.78 93.9602 154.856 92.7199 158.032 94.8219C161.206 96.9252 162.292 101.59 160.453 105.22C159.827 106.455 160.195 108.036 161.277 108.751C161.632 108.987 162.023 109.1 162.407 109.1C163.186 109.1 163.945 108.638 164.364 107.811C167.452 101.715 165.629 93.8832 160.297 90.3504Z" fill="black"/>
<path d="M100.378 71.1862C98.5461 71.9205 55.1647 90.3567 22.7346 192.788C22.3109 194.129 22.9178 195.612 24.0897 196.098C24.3458 196.202 24.604 196.253 24.86 196.253C25.7847 196.253 26.6521 195.598 26.9854 194.547C58.5878 94.7248 101.451 76.2343 101.874 76.0615C103.053 75.5896 103.671 74.1146 103.258 72.7684C102.845 71.4246 101.563 70.7118 100.378 71.1862Z" fill="black"/>
</svg>
