<svg width="226" height="251" viewBox="0 0 226 251" fill="none" xmlns="http://www.w3.org/2000/svg">
<path d="M28.954 180.72H60.7342C64.474 180.72 67.5175 178.016 67.5175 174.693V160.389C67.5175 160.173 67.4789 159.959 67.4016 159.754C67.1809 159.166 45.6414 100.692 69.5082 71.2693C78.5493 60.1233 93.182 54.4719 113 54.4719C132.779 54.4719 147.39 60.1145 156.428 71.2438C180.299 100.639 158.818 159.168 158.598 159.756C158.521 159.96 158.482 160.174 158.482 160.389V174.693C158.482 178.016 161.526 180.72 165.266 180.72H197.046C200.55 180.72 203.4 178.187 203.4 175.074V166.637C203.4 164.296 201.815 162.233 199.361 161.379L191.091 158.504C198.536 141.447 201.631 119.312 202.826 107.372C203.553 100.109 203.355 93.5671 202.217 87.3735C195.06 48.3812 157.538 20.08 113 20.08C68.4632 20.08 30.9426 48.3812 23.783 87.3745C22.6464 93.571 22.4466 100.113 23.1738 107.372C24.3689 119.312 27.4632 141.446 34.9086 158.504L26.6378 161.379C24.1847 162.233 22.6 164.296 22.6 166.637V175.074C22.6 178.187 25.4504 180.72 28.954 180.72ZM27.12 166.637C27.12 165.961 27.578 165.365 28.2853 165.119L38.6782 161.506C39.2443 161.31 39.6968 160.918 39.9351 160.422C40.1724 159.925 40.1757 159.365 39.9429 158.866C32.1046 142.082 28.8934 119.176 27.6762 107.017C26.9832 100.095 27.1686 93.8809 28.2434 88.0206C35.0444 50.9805 70.6901 24.096 113 24.096C155.311 24.096 190.957 50.9805 197.757 88.0206C198.831 93.8779 199.017 100.091 198.324 107.017C197.107 119.177 193.894 142.083 186.057 158.866C185.824 159.365 185.828 159.925 186.065 160.422C186.303 160.918 186.756 161.31 187.322 161.506L197.714 165.119C198.422 165.365 198.88 165.961 198.88 166.637V175.074C198.88 175.973 198.057 176.704 197.046 176.704H165.266C164.018 176.704 163.002 175.802 163.002 174.693V160.71C164.918 155.467 184.651 99.145 160.097 68.8995C150.162 56.6613 134.317 50.4559 113 50.4559C91.647 50.4559 75.7795 56.6682 65.8413 68.9211C41.3035 99.1725 61.0752 155.464 62.9975 160.711V174.693C62.9975 175.802 61.9823 176.704 60.7342 176.704H28.954C27.9432 176.704 27.12 175.973 27.12 175.074V166.637Z" fill="black"/>
<path d="M46.0817 148.734C46.8222 150.778 47.6134 152.728 48.4322 154.53C48.7875 155.311 49.635 155.786 50.5289 155.786C50.8103 155.786 51.0972 155.738 51.3753 155.639C52.5318 155.223 53.0913 154.052 52.6234 153.024C51.8443 151.313 51.0906 149.456 50.3832 147.503C50.0014 146.448 48.7313 145.858 47.5395 146.207C46.3521 146.547 45.6988 147.678 46.0817 148.734Z" fill="black"/>
<path d="M183.879 101.014L183.89 102.192C183.89 104.33 183.777 106.573 183.554 108.86C183.443 110.002 183.308 111.285 183.146 112.686C183.018 113.789 183.921 114.776 185.163 114.888C185.242 114.896 185.319 114.899 185.396 114.899C186.54 114.899 187.523 114.13 187.642 113.096C187.806 111.673 187.943 110.368 188.057 109.208C188.291 106.805 188.41 104.444 188.41 102.192C188.41 101.776 188.407 101.361 188.399 100.945C188.377 99.8362 187.289 98.9087 186.1 98.9715C184.852 98.9911 183.858 99.9049 183.879 101.014Z" fill="black"/>
<path d="M93.0528 40.9356C93.2614 40.9356 93.4733 40.9091 93.683 40.8552C97.8344 39.7864 102.126 39.0619 106.44 38.7011C107.682 38.5971 108.595 37.6176 108.478 36.5136C108.361 35.4096 107.25 34.6037 106.016 34.7027C101.421 35.0871 96.8478 35.8597 92.4249 36.998C91.2265 37.3068 90.5357 38.4197 90.8833 39.4854C91.1691 40.3639 92.0729 40.9356 93.0528 40.9356Z" fill="black"/>
<path d="M69.2324 51.655C69.7113 51.655 70.1935 51.5207 70.604 51.2413C74.0525 48.896 77.7526 46.8262 81.6039 45.0908C82.7162 44.5898 83.1609 43.3808 82.5959 42.3915C82.032 41.4042 80.6725 41.0071 79.558 41.5101C75.4617 43.3563 71.5244 45.5575 67.8563 48.0528C66.8653 48.7264 66.6766 49.9872 67.4358 50.8677C67.8806 51.3844 68.5526 51.655 69.2324 51.655Z" fill="black"/>
<path d="M119.427 38.6913C123.742 39.0452 128.035 39.7619 132.189 40.8228C132.398 40.8767 132.608 40.9022 132.815 40.9022C133.797 40.9022 134.701 40.3286 134.985 39.4482C135.331 38.3824 134.638 37.2696 133.438 36.9637C129.012 35.8332 124.438 35.0694 119.842 34.6929C118.58 34.5831 117.499 35.4037 117.384 36.5078C117.269 37.6118 118.184 38.5903 119.427 38.6913Z" fill="black"/>
<path d="M144.28 45.0378C148.132 46.7644 151.836 48.8283 155.293 51.1707C155.703 51.4472 156.184 51.5815 156.662 51.5815C157.343 51.5815 158.017 51.3089 158.462 50.7912C159.217 49.9088 159.027 48.6489 158.034 47.9763C154.358 45.4849 150.415 43.2906 146.317 41.4532C145.203 40.9532 143.844 41.3513 143.282 42.3406C142.719 43.3308 143.166 44.5388 144.28 45.0378Z" fill="black"/>
<path d="M40.8709 91.2277C41.0254 91.2561 41.1799 91.2699 41.3322 91.2699C42.3816 91.2699 43.3218 90.6179 43.5425 89.6697C44.4242 85.894 45.6866 82.1682 47.2967 78.5973C47.7612 77.5678 47.1973 76.3991 46.0386 75.9873C44.8811 75.5735 43.5635 76.0746 43.1011 77.105C41.3929 80.8945 40.0521 84.8478 39.1174 88.854C38.8636 89.9404 39.6493 91.0032 40.8709 91.2277Z" fill="black"/>
<path d="M50.072 68.926C50.4439 69.1329 50.8577 69.2309 51.2671 69.2309C52.0208 69.2309 52.758 68.8966 53.1862 68.2867C55.4859 65.0159 58.1255 61.9137 61.0344 59.0664C61.873 58.2457 61.8035 56.975 60.8788 56.2299C59.9551 55.4837 58.5261 55.5445 57.6863 56.3681C54.5987 59.3919 51.7946 62.6863 49.3525 66.1591C48.6915 67.0994 49.0138 68.3387 50.072 68.926Z" fill="black"/>
<path d="M184.034 122.749C182.812 122.579 181.646 123.331 181.458 124.428C180.751 128.509 179.94 132.416 179.045 136.041C178.777 137.124 179.549 138.195 180.768 138.432C180.931 138.465 181.095 138.479 181.255 138.479C182.293 138.479 183.229 137.84 183.459 136.902C184.375 133.195 185.204 129.203 185.925 125.038C186.115 123.942 185.268 122.917 184.034 122.749Z" fill="black"/>
<path d="M44.774 138.599C44.9351 138.599 45.0985 138.584 45.2618 138.552C46.4812 138.314 47.2514 137.243 46.9833 136.16C46.0839 132.528 45.2695 128.622 44.5633 124.55C44.3735 123.453 43.2104 122.701 41.9855 122.871C40.7517 123.04 39.9064 124.066 40.0962 125.162C40.8168 129.317 41.6489 133.307 42.5692 137.022C42.801 137.961 43.7356 138.599 44.774 138.599Z" fill="black"/>
<path d="M40.8532 115.012C42.0947 114.898 42.9963 113.911 42.8683 112.808C42.6994 111.361 42.5604 110.035 42.4456 108.86C42.2227 106.573 42.1102 104.33 42.1102 102.192L42.119 101.132C42.1355 100.023 41.138 99.1126 39.8899 99.097C38.5921 99.0989 37.6155 99.9686 37.599 101.078L37.5901 102.192C37.5901 104.444 37.7093 106.805 37.9433 109.208C38.0602 110.402 38.2015 111.749 38.3725 113.222C38.4928 114.254 39.4739 115.023 40.6182 115.023C40.6954 115.023 40.7738 115.02 40.8532 115.012Z" fill="black"/>
<path d="M182.43 89.5501C182.654 90.4963 183.593 91.1463 184.64 91.1463C184.794 91.1463 184.949 91.1326 185.106 91.1042C186.328 90.8767 187.11 89.8119 186.855 88.7265C185.91 84.7203 184.562 80.77 182.846 76.9844C182.38 75.9559 181.069 75.4569 179.905 75.8716C178.747 76.2863 178.187 77.456 178.653 78.4846C180.269 82.0515 181.54 85.7743 182.43 89.5501Z" fill="black"/>
<path d="M172.742 68.1847C173.171 68.7926 173.906 69.126 174.659 69.126C175.069 69.126 175.484 69.027 175.857 68.8191C176.915 68.2298 177.235 66.9905 176.571 66.0512C174.126 62.5853 171.315 59.2958 168.219 56.275C167.38 55.4543 165.951 55.3936 165.026 56.1426C164.104 56.8888 164.036 58.1595 164.877 58.9791C167.793 61.8235 170.439 64.9208 172.742 68.1847Z" fill="black"/>
<path d="M175.617 147.503C174.909 149.456 174.156 151.313 173.377 153.024C172.909 154.052 173.468 155.223 174.625 155.639C174.903 155.738 175.19 155.786 175.471 155.786C176.365 155.786 177.212 155.311 177.568 154.53C178.387 152.728 179.178 150.778 179.918 148.734C180.301 147.678 179.648 146.547 178.461 146.208C177.272 145.866 175.999 146.448 175.617 147.503Z" fill="black"/>
</svg>
