<svg width="207" height="245" viewBox="0 0 207 245" fill="none" xmlns="http://www.w3.org/2000/svg">
<path d="M80.2994 130.186C45.5572 130.186 27.941 143.841 27.941 170.771V174.44C27.941 175.522 28.8678 176.4 30.011 176.4H177.337C178.48 176.4 179.407 175.522 179.407 174.44V170.789C179.407 143.847 161.785 130.186 127.032 130.186H125.547V117.615C137.669 110.748 145.463 98.4469 145.903 84.7089C149.299 84.051 151.869 81.1256 151.869 77.6219V75.4744C151.869 72.1283 150.242 69.0389 147.615 67.0167C147.284 47.0589 134.014 25.3108 114.336 24.0106C112.99 21.4102 110.193 19.6 106.933 19.6H100.962C97.5915 19.6 94.6962 21.5254 93.4105 24.2709C75.1105 25.4902 60.9373 47.925 60.5691 67.0459C57.8332 69.0589 56.1386 72.1884 56.1386 75.6256V77.6219C56.1386 81.1269 58.7106 84.0531 62.1087 84.7093C62.5425 98.2609 70.1254 110.427 82.0278 117.363V130.186H80.2994ZM83.5183 134.106L84.9428 134.925C89.547 137.573 94.5998 139.153 99.7457 139.7L89.8206 151.844C75.6887 146.104 71.8537 138.111 70.8163 134.523C73.8145 134.266 76.9459 134.106 80.2994 134.106H83.5183V134.106ZM103.787 165.931C102.644 165.931 101.717 166.809 101.717 167.891V172.48H65.4404C63.3437 156.9 50.8292 145.784 45.8657 141.952C51.2138 138.441 58.14 136.123 66.6692 134.979C67.7909 139.336 72.2355 149.459 89.7256 156.048C89.9743 156.142 90.234 156.187 90.4897 156.187C91.1174 156.187 91.7269 155.917 92.1281 155.426L103.644 141.336L115.159 155.426C115.56 155.917 116.17 156.187 116.797 156.187C117.053 156.187 117.313 156.142 117.561 156.048C135.06 149.456 139.5 139.326 140.619 134.973C149.074 136.102 155.959 138.381 161.293 141.832C156.453 145.537 143.681 156.719 141.56 172.48H105.857V167.891C105.857 166.809 104.93 165.931 103.787 165.931ZM32.081 170.771C32.081 159.248 35.5685 150.528 42.5409 144.466C46.3026 147.294 59.0327 157.875 61.2679 172.48H32.081V170.771ZM175.267 170.789V172.48H145.732C148 157.663 161.093 146.969 164.639 144.329C171.724 150.398 175.267 159.17 175.267 170.789ZM136.472 134.52C135.436 138.106 131.602 146.102 117.466 151.844L107.561 139.724C112.731 139.208 117.817 137.651 122.454 135.014L124.051 134.106H127.032C130.37 134.106 133.486 134.265 136.472 134.52ZM96.8352 27.4276C96.8352 25.2733 98.6869 23.52 100.962 23.52H106.933C109.209 23.52 111.06 25.2733 111.06 27.4276V29.4182C111.06 29.9857 110.572 30.4479 109.973 30.4479H97.9227C97.3234 30.4479 96.8352 29.9857 96.8352 29.4182V27.4276ZM92.6952 28.2663V29.4182C92.6952 32.1476 95.0401 34.3679 97.9227 34.3679H109.973C112.855 34.3679 115.2 32.1476 115.2 29.4182V28.0678C128.518 29.7232 142.199 44.2998 143.372 64.9343C130.389 60.5881 117.617 59.0285 106.076 58.9884V56.1165C106.076 55.0341 105.15 54.1565 104.006 54.1565C102.863 54.1565 101.936 55.0341 101.936 56.1165V59.035C85.6399 59.4821 72.2192 62.7877 64.8056 65.0559C66.0392 48.7646 77.9027 30.0344 92.6952 28.2663ZM60.2786 77.6219V75.6256C60.2786 72.6234 62.2789 69.9762 65.2555 69.0402C72.7391 66.6869 87.597 62.8951 105.597 62.8951C117.141 62.8951 129.979 64.4561 142.986 68.957C145.823 69.9379 147.729 72.5573 147.729 75.4744V77.6219C147.729 79.447 146.262 80.9313 144.459 80.9313H63.5484C61.7452 80.9313 60.2786 79.447 60.2786 77.6219ZM66.2547 84.8513H141.757C141.259 97.4133 133.937 108.605 122.678 114.658C122.668 114.662 122.661 114.668 122.651 114.672C120.515 115.818 118.255 116.802 115.857 117.551C115.747 117.582 104.835 120.744 92.1847 117.56C77.0985 112.846 66.8473 99.8048 66.2547 84.8513ZM91.0032 121.315C95.7173 122.503 100.173 122.9 104.027 122.9C111.554 122.9 116.782 121.385 117.126 121.283C118.601 120.822 120.018 120.264 121.407 119.664V131.037L120.323 131.654C110.058 137.491 97.3244 137.458 87.0926 131.576L86.1678 131.043V119.456C87.7286 120.153 89.3299 120.793 91.0032 121.315Z" fill="black"/>
<path d="M105.857 154.227C105.857 153.144 104.93 152.267 103.787 152.267C102.644 152.267 101.717 153.144 101.717 154.227V160.776C101.717 161.858 102.644 162.736 103.787 162.736C104.93 162.736 105.857 161.858 105.857 160.776V154.227Z" fill="black"/>
<path d="M104.006 52.1295C105.15 52.1295 106.076 51.2519 106.076 50.1695V47.4295C106.076 46.3471 105.15 45.4695 104.006 45.4695C102.863 45.4695 101.936 46.3471 101.936 47.4295V50.1695C101.936 51.2519 102.863 52.1295 104.006 52.1295Z" fill="black"/>
<path d="M104.006 43.4932C105.15 43.4932 106.076 42.6156 106.076 41.5332V38.7942C106.076 37.7118 105.15 36.8342 104.006 36.8342C102.863 36.8342 101.936 37.7118 101.936 38.7942V41.5332C101.936 42.6156 102.863 43.4932 104.006 43.4932Z" fill="black"/>
</svg>
